<?xml version="1.0" standalone="no"?>
<svg viewBox="-350 -150 1500 1500" style="width: 487.5px; height: 487.5px; justify-content: center; align-self: center; transform: scale(1, 1);" xmlns="http://www.w3.org/2000/svg" width="609" height="609"><g transform="rotate(0 408.51788902282715 624.8098373413086)"><g transform="translate(0 459)"><path d="M778.244 749.543C797.57 748.61 789.797 714.805 788.41 702.39C773.109 657.046 776.706 607.574 770.688 560.046C766.939 515.678 762.122 471.448 758.07 427.114C750.112 337.12 692.965 153.916 627.75 124.453C619.535 88.4068 585.604 54.7586 542.674 54.7586C513.394 20.0996 478.151 -4.29271 432.948 0.63229C414.268 1.48229 396.152 21.2943 378.253 25.1203C368.231 26.5023 279.291 22.9453 261.475 33.5263C249.065 39.8983 237.862 51.6733 241.511 66.6643C247.333 84.8263 229.24 65.1743 191.497 84.5593C114.534 130.782 160.524 192.619 162.562 194.535C114.534 261.358 72.5551 315.57 53.1321 397.247C40.5441 457.886 41.9611 520.485 31.4141 581.435C27.6901 602.569 21.9771 622.98 15.7951 643.503C9.09505 670.362 5.83721 737.306 2.14421 737.904C-4.58279 739.575 6.03205 753.387 13.1601 753.398C210.784 786.179 411.522 754.756 610.208 749.622C666.201 747.675 722.254 747.226 778.244 749.543Z" transform="translate(12.50415 -33.85719)" fill="#FFFFFF" stroke="none"></path><path d="M307.855 2.4589L307.101 2.58547C295.271 4.59142 282.709 7.69826 272.682 14.5299C263.284 20.9319 258.076 29.7199 253.737 39.9729L253.581 40.3424C250.197 48.3883 246.334 59.0025 237.322 61.9649C233.114 63.3473 228.493 63.2797 223.988 63.2138C222.432 63.191 220.89 63.1684 219.383 63.2059C213.199 63.3589 206.996 64.1349 201.161 66.2609C178.491 74.5199 162.849 94.8779 156.822 117.79C153.086 131.993 152.635 147.159 154.503 161.686C155.301 167.896 157.897 174.697 163.471 178.174C165.293 179.31 167.277 179.934 169.209 180.018C147.699 202.008 128.456 226.143 110.935 251.506C96.5071 272.393 82.7451 293.942 71.7051 316.836C59.5801 341.981 51.5401 368.321 47.2671 395.897C42.9381 423.83 41.5171 452.06 39.1441 480.196C36.8581 507.315 32.6171 533.833 26.2981 560.305C19.1281 590.339 10.5571 620.108 5.00309 650.506C2.17909 665.96 0.172089 681.582 0.016089 697.307C-0.138911 712.796 0.758089 729.109 5.69609 743.866C7.28009 748.6 11.6581 751.851 16.7541 751.086C21.1851 750.419 26.1371 746.219 25.4921 741.187C23.8091 728.052 21.7231 715.071 21.5031 701.796C21.2841 688.598 22.2531 675.327 23.8641 662.235C26.8818 637.726 32.9411 613.781 38.8117 589.837L40.3591 583.498C46.8471 556.762 52.5511 529.976 55.4461 502.585C58.2691 475.878 59.1211 449.011 61.6471 422.279C64.1921 395.354 68.8771 368.681 78.5101 343.316C87.265 320.265 99.6124 298.732 112.669 277.871L114.414 275.094C137.391 238.648 163.693 204.228 194.565 174.086C211.398 157.65 229.53 142.316 248.664 128.625C258.603 121.513 268.698 114.628 279.099 108.206C286.55 103.605 294.185 99.3049 301.704 94.8199C305.695 97.1379 309.428 100.968 312.048 103.425L314.626 105.867C319.76 110.774 324.767 115.803 329.893 120.717C341.723 132.058 353.196 143.739 365.359 154.735C377.005 165.263 389.507 175.16 403.066 183.12C410.05 187.219 417.373 190.714 424.932 193.622C431.202 196.034 441.728 199.775 446.99 193.984C450.11 191.806 451.223 187.676 448.559 184.44C445.562 177.677 435.143 176.09 428.744 173.569C421.283 170.632 414.17 166.683 407.398 162.414C394.461 154.257 382.785 144.378 371.398 134.211L369.046 132.104C356.11 120.481 343.349 108.636 328.851 98.9469C323.804 95.5729 317.429 91.2979 310.936 89.1229L312.398 88.1889C312.916 87.8509 312.6 86.9759 311.965 87.1609C310.689 87.5319 309.418 87.9229 308.148 88.3269C302.196 86.9439 296.292 87.6819 291.363 92.8679C290.954 93.2979 291.469 93.9479 291.987 93.6769C293.17 93.0619 294.393 92.8159 295.633 92.8419C279.984 99.1169 264.872 107.417 250.545 115.795C231.773 126.771 213.948 139.544 197.399 153.637C190.76 159.292 184.328 165.158 178.076 171.198C177.287 169.175 174.973 167.855 172.442 168.206C171.303 168.364 169.069 161.781 168.827 159.974C168.069 154.323 168.098 148.412 168.301 142.723C168.697 131.549 170.696 120.093 175.383 109.875C183.123 92.9999 198.68 79.2099 217.708 77.6809C228.515 76.8139 239.85 77.5959 249.275 71.2129C256.552 66.284 260.754 58.8084 264.073 50.9261L264.511 49.8729C267.783 41.8919 271.186 33.2229 278.02 27.6029C285.17 21.7238 294.466 19.0659 303.368 16.8945L305.898 16.2849C330.616 10.3786 355.677 10.9613 380.816 11.9458L388.757 12.2629C388.986 12.2729 389.079 11.9339 388.875 11.8269C364.204 -1.1861 334.85 -2.0251 307.855 2.4589ZM399.76 23.7801C393.622 22.0941 387.33 25.8471 385.547 31.8501C383.705 38.0461 383.895 45.1551 383.236 51.5901C382.919 54.6995 383.123 57.8131 383.326 60.9192C383.469 63.1015 383.612 65.2802 383.574 67.4511C380.231 63.8771 376.848 60.3481 373.332 57.0011C372.428 56.1401 371.274 57.2191 371.713 58.2501C378.911 75.1751 390.454 90.9031 402.132 104.969C414.137 119.43 427.664 132.611 441.883 144.887C448.857 150.908 456.055 156.664 463.401 162.225L464.174 162.807C471.923 168.606 480.161 173.64 490.284 172.117C498.934 170.815 505.966 165.543 512.443 159.977L513.703 158.885C520.913 152.598 527.838 145.97 534.422 139.03C547.676 125.061 559.6 109.662 570.06 93.5021C570.181 93.315 570.303 93.1276 570.425 92.9399C572.897 89.1386 575.456 85.2033 574.127 80.4281C573.486 78.1261 572.12 76.5591 570.401 75.6991C569.992 75.1811 569.517 74.6791 568.957 74.2041L568.857 74.1151C568.433 72.9601 568.02 71.8031 567.621 70.6401C566.966 68.8191 566.296 67.0081 565.594 65.2041C564.086 61.3261 562.598 57.4381 560.975 53.6061C559.425 49.9461 557.893 46.2731 556.293 42.6341L556.156 42.3193C554.841 39.2874 553.892 36.5844 550.811 34.9701C550.644 34.8831 550.373 34.8781 550.242 35.0431C548.077 37.7878 548.14 40.9699 548.207 44.2948C548.209 44.4248 548.212 44.5549 548.214 44.6853L548.229 45.7651C548.258 51.1201 548.274 56.4721 548.483 61.8231C548.54 63.2807 548.538 64.9084 548.537 66.6317C548.532 73.9061 548.525 82.884 552.868 87.9571C550.542 91.4671 548.153 94.9361 545.686 98.3471C534.575 113.699 521.866 127.977 508.141 141.036L507.851 141.313C502.313 146.641 495.031 155.2 486.971 155.94C483.654 156.245 480.591 154.478 477.845 152.68L476.353 151.691C472.351 149.039 468.458 146.207 464.595 143.359C447.626 130.843 432.234 116.708 417.082 102.093C411.929 97.1238 406.918 92.0036 401.937 86.8559L395.543 80.2321C393.683 78.3061 391.843 76.3463 390.009 74.3746L386.343 70.4221C389.67 65.1641 394.434 60.9491 397.7 55.5961C401.236 49.8031 405.43 44.3681 407.83 37.9941C410.029 32.1531 405.385 25.3261 399.76 23.7801ZM563.599 43.1334C571.711 40.3194 581.853 42.8734 589.786 45.3314C598.624 48.0714 606.791 53.1174 613.793 59.1104C621.18 65.4304 627.285 73.2344 631.598 81.9524L632.01 82.7923C635.949 90.8792 640.436 101.981 638.45 110.865C638.393 111.117 638.328 111.36 638.254 111.595C654.349 119.518 669.213 129.442 682.157 142.02C697.229 156.665 709.991 173.33 720.791 191.334C763.684 262.842 771.234 348.722 776.3 430.271L777.563 450.948C780.314 495.597 783.533 540.14 791.896 584.172L792.506 587.351C794.379 597.012 796.421 606.688 798.468 616.383C806.188 652.959 813.968 689.819 812.944 727.202C812.555 741.372 791.613 741.276 791.006 727.202C788.72 674.229 776.358 623.083 767.987 570.938C753.258 479.197 760.638 384.617 739.768 293.795C731.578 258.153 718.891 223.58 700.774 191.765C691.825 176.048 681.586 160.861 669.592 147.302C659.273 135.635 648.548 124.407 636.489 114.599C632.635 118.459 624.936 116.492 622.924 110.865C621.542 106.998 621.945 102.477 621.058 98.4264C620.235 94.6674 619.1 90.9404 617.588 87.4004C614.574 80.3454 610.15 73.5704 605.043 67.8604C599.526 61.6884 593.185 56.5604 586.09 52.3264C578.946 48.0634 571.133 46.7904 563.599 43.6754C563.345 43.5704 563.321 43.2304 563.599 43.1334ZM490.625 187.576C490.531 186.673 489.311 186.671 489.219 187.576C487.291 206.218 485.146 224.758 483.806 243.456C482.496 261.739 481.319 280.017 480.773 298.338C479.675 335.252 479.661 372.181 478.995 409.1C478.268 449.36 477.938 489.613 478.327 529.858L473.318 530.22C444.972 532.364 416.602 534.242 388.23 536.072L356.312 538.123C355.902 538.149 355.743 538.545 355.847 538.838C355.408 538.976 355.025 539.287 354.926 539.741C353.481 546.311 353.493 553.189 352.142 559.83C350.721 566.828 348.661 573.77 346.147 580.452C341.126 593.8 333.966 606.494 325.588 618.01C317.207 629.53 307.297 640.17 296.502 649.464C290.801 654.372 285.214 659.169 281.403 665.786C277.683 672.246 275.799 679.485 274.075 686.677L263.584 730.777C263.384 731.62 263.163 732.475 262.94 733.339C261.672 738.249 260.332 743.441 262.254 748.233C265.149 755.453 273.299 758.382 279.451 752.774C286.045 746.764 286.557 734.615 288.361 726.285L294.039 700.059L294.209 699.262C295.661 692.334 296.682 684.792 299.625 678.344C302.506 672.029 307.889 667.048 312.581 662.09L313.231 661.401C333.123 640.231 350.589 614.626 357.36 586.038C359.25 578.058 360.355 569.952 360.434 561.746C360.503 554.591 360.234 546.083 357.41 539.416C357.367 539.314 357.303 539.237 357.238 539.16C396.265 539.526 435.282 539.356 474.309 539.186C475.683 539.181 477.057 539.162 478.432 539.153C478.808 569.316 479.598 599.475 480.956 629.626C482.828 671.211 484.716 712.829 487.578 754.358C487.785 757.371 492.056 757.377 492.265 754.358C494.806 717.481 496.595 680.523 498.258 643.597L498.873 629.942C500.232 599.599 501.489 569.26 501.594 538.884C511.992 538.707 522.389 538.47 532.791 538.178C542.703 537.9 552.611 537.537 562.52 537.152C567.144 536.974 571.768 536.791 576.392 536.604C581.293 536.407 585.626 536.566 588.447 532.015C589.67 530.042 589.012 527.882 587.7 526.22C584.88 522.646 580.543 523.022 576.401 523.381C575.73 523.44 575.064 523.497 574.411 523.538L567.475 523.963L550.628 524.985C544.021 525.388 537.414 525.797 530.808 526.224C521.071 526.852 511.339 527.501 501.608 528.175C501.468 456.22 501.138 384.245 499.478 312.308C499.002 291.653 498.014 271.049 496.537 250.44C495.352 233.913 493.718 217.495 492.02 201.045L490.625 187.576ZM699.227 238.384C699.29 237.426 700.706 237.411 700.727 238.384C700.906 246.624 701.078 254.864 701.249 263.105C702.625 329.507 701.777 396.066 708.439 462.24C711.581 493.441 717.367 524.183 724.062 554.797C727.488 570.462 731.082 586.09 734.497 601.757C737.825 617.026 741.394 632.369 744.034 647.78C746.628 662.926 748.952 678.189 749.995 693.53L750.123 695.532C750.208 696.94 750.354 698.474 750.507 700.08C751.161 706.949 751.94 715.141 748.623 720.48C744.189 727.616 735.7 727.744 730.949 720.932C727.651 716.204 727.398 708.755 727.171 702.109C727.091 699.765 727.015 697.521 726.809 695.532C726.008 687.759 725.161 679.98 724.199 672.225C722.322 657.098 719.849 642.005 717.277 626.981C711.92 595.693 704.15 564.799 698.415 533.561C692.537 501.552 688.359 469.314 688.183 436.724C688.064 414.378 689.634 392.061 691.204 369.756C691.942 359.255 692.681 348.757 693.243 338.259C695.027 304.951 697.055 271.668 699.227 238.384ZM189.527 401.641C189.187 399.591 191.766 398.321 192.955 400.196C206.546 421.618 213.099 444.887 215.861 469.956C218.301 492.081 217.582 514.525 216.367 536.708C215.071 560.368 213.559 584.022 212.03 607.669L209.681 643.932L203.786 734.841C203.364 741.344 201.888 747.257 196.289 750.28C195.58 750.872 194.841 751.403 193.98 751.863C190.955 753.48 186.943 752.663 185.194 749.559L185.895 750.02C186.506 750.405 185.82 749.868 183.837 748.411L182.154 746.233C180.931 744.395 180.15 742.588 179.836 740.403C179.474 737.887 179.728 735.191 179.974 732.575C180.06 731.66 180.145 730.756 180.202 729.872L184.066 670.26C187.071 623.917 190.58 577.587 193.225 531.22C194.457 509.61 195.32 487.979 194.736 466.331C194.154 444.803 193.057 422.91 189.527 401.641ZM595.836 533.129C595.566 532.88 595.127 533.056 595.115 533.428C594.93 539.644 598.101 546.787 600.836 552.947C601.431 554.287 602.005 555.58 602.519 556.806L603.013 557.98C605.993 565.024 609.245 572.075 613.303 578.555C618.047 586.131 623.312 593.39 629.149 600.16C634.652 606.543 640.847 612.076 646.809 618.003C652.727 623.887 656.334 630.017 658.227 638.139C660.374 647.362 661.316 656.935 662.476 666.321L662.977 670.446C663.961 678.696 664.84 686.959 665.615 695.232C665.819 697.406 665.914 699.759 666.013 702.192C666.37 710.955 666.768 720.741 672.412 726.828C676.609 731.355 683.668 729.7 686.773 724.979C689.673 720.566 689.548 715.442 689.085 710.392L688.926 708.757C688.406 703.598 687.77 698.447 687.132 693.301C685.82 682.722 684.365 672.158 682.741 661.622L682.449 659.702C679.786 641.949 677.747 623.041 665.125 609.265C659.076 602.663 651.615 597.344 644.957 591.381C638.812 585.879 632.888 580.042 627.33 573.948C621.354 567.395 615.425 560.707 610.099 553.611C607.441 550.069 604.906 546.433 602.492 542.721C600.399 539.502 598.68 535.746 595.836 533.129Z" transform="translate(2.000311 -20.99981)" fill="#000000" fill-rule="evenodd" stroke="none"></path></g><g transform="translate(225 0)"><g><g><path d="M185.626 0C242.407 0 301.136 44.012 321.95 72.0972C339.449 95.7099 348.871 202.486 348.871 274.645C348.871 289.737 357.199 318.186 354.769 332.622C345.863 385.521 307.06 429.886 230.262 429.886C153.463 429.886 98.3997 399.445 41.3173 317.713C13.6206 317.713 0.197717 296.473 0.00278191 262.954C-0.192153 229.435 26.7371 217.24 26.7371 217.24C26.7371 217.24 17.1355 84.9611 41.3173 50.522C65.499 16.0828 128.845 -8.27315e-15 185.626 0Z" transform="translate(56.41525 75.25961)" fill="#FFFFFF" stroke="none"></path><path d="M274.456 7.28737C239.126 0.976367 203.996 -2.07363 168.146 1.55637C150.635 3.33737 133.196 6.21637 116.196 10.8274C101.246 14.8974 84.2463 19.6864 71.3463 28.8374C66.4163 22.4874 58.5363 17.1574 50.2063 19.6674C41.3563 22.3374 39.9063 30.1064 41.6563 38.1474C41.8288 38.9319 42.0203 39.4037 42.1459 39.713C42.3425 40.1973 42.3774 40.2832 41.9244 40.5476L41.4163 40.8274C39.7263 41.7474 37.7153 41.9174 36.0263 43.0264C32.9653 45.0374 30.9363 48.3664 30.0453 51.8774C28.0963 59.5264 31.8353 66.1764 36.5563 71.8274C19.9063 95.9174 10.5263 124.337 6.82627 153.287C4.85627 168.667 4.45627 184.457 5.93627 199.897C6.63527 207.207 7.40627 214.647 8.98627 221.827C10.3353 227.966 12.4163 233.797 14.7063 239.606L15.0053 240.386C6.83527 247.547 1.84627 258.547 0.516266 269.167C-1.69373 286.766 3.30627 308.337 13.3163 323.087C16.2953 327.466 19.8163 331.317 23.9363 334.417C22.4563 337.287 21.2663 340.337 20.1863 343.136L19.7935 344.15C17.8906 349.058 15.7137 354.843 17.8263 359.936C20.1463 365.547 26.3753 366.726 31.4463 364.087C32.0863 363.755 32.7193 363.399 33.3503 363.033C34.5763 363.052 35.8333 362.887 37.0913 362.605C38.4253 367.075 41.1703 371.184 44.7483 373.629C51.5473 378.276 61.4233 377.832 68.2513 373.184C75.1443 384.313 83.8243 394.421 93.4363 403.266L93.6568 403.47C94.0369 403.822 94.4257 404.186 94.8229 404.559C99.9048 409.324 106.361 415.378 113.585 412.497C120.626 409.696 119.465 401.247 115.186 396.407C110.786 391.446 104.806 387.537 100.016 382.886C94.9463 377.976 90.0263 372.987 85.3753 367.676C80.4463 362.047 75.5853 356.346 70.5763 350.797C67.8663 347.787 65.0663 344.837 62.4063 341.776C61.3663 340.183 60.2507 338.652 59.1808 337.222L57.6253 335.157C57.7763 334.926 57.9363 334.707 58.0763 334.466C60.1663 330.987 58.0363 327.147 54.5763 325.856C49.3463 323.917 43.7763 324.556 38.6353 322.497C33.4563 320.426 29.5363 316.207 26.6753 311.537C20.1753 300.917 16.3263 286.957 16.4363 274.537C16.5263 263.926 20.8853 252.386 30.3753 246.787C34.5423 244.33 41.3453 243.214 47.3933 244.233C49.9383 246.436 52.7063 248.484 55.0193 250.939L54.7263 251.667C54.4763 252.297 55.4763 252.897 55.8963 252.346L56.0673 252.124C56.7393 252.936 57.3643 253.791 57.9013 254.722C60.5933 259.394 61.7203 264.323 67.4233 266.281C71.0817 267.537 74.5448 266.638 78.0434 265.729C79.5464 265.339 81.0559 264.947 82.5903 264.723C86.8643 264.1 88.8083 258.87 87.9903 255.212C85.4563 243.874 83.1253 232.516 80.3183 221.238L79.3443 217.421C86.1473 205.805 92.3913 193.842 98.3753 181.766C98.5563 184.037 98.7663 186.317 99.0163 188.587C99.4463 192.446 104.786 196.237 107.906 192.266C118.175 179.186 128.476 166.436 137.056 152.127C142.776 142.587 147.835 132.587 152.316 122.356C152.776 123.886 153.276 125.407 153.816 126.886C155.585 131.647 159.976 135.056 165.236 133.616C170.206 132.257 173.246 127.556 175.516 123.306L177.817 118.981C179.345 116.094 180.863 113.2 182.376 110.306C189.956 120.067 199.266 128.276 210.045 134.547C212.755 136.127 216.986 134.787 217.635 131.466C219.326 122.846 221.005 114.237 222.686 105.627C237.076 116.067 252.236 125.356 268.106 133.417C271.686 135.237 276.196 133.026 276.206 128.766C276.215 121.946 276.766 115.186 278.085 108.497C285.026 113.827 292.795 117.827 301.166 120.426C309.166 122.917 317.826 124.077 326.175 123.266C326.246 123.257 326.326 123.247 326.396 123.247L327.616 123.946L327.848 124.073C330.084 125.239 332.218 124.691 333.706 123.356C337.726 153.657 344.576 183.476 347.156 214.037C348.566 230.726 349.266 247.516 349.056 264.276C348.946 272.356 348.635 280.426 348.125 288.497C347.666 295.596 346.465 302.776 345.956 309.897C344.146 311.856 343.226 314.606 344.096 317.567C346.686 326.337 350.795 334.257 351.715 343.537C352.616 352.686 351.826 361.957 349.536 370.846C345.045 388.237 334.835 404.397 320.675 415.497C291.175 438.616 249.856 447.337 213.096 442.196C191.835 439.216 172.266 433.096 155.396 419.377C154.936 418.997 154.146 419.476 154.516 420.056C178.096 456.707 224.786 465.577 265.135 458.987C308.726 451.866 352.125 424.466 366.505 381.047C370.316 369.556 372.026 357.096 370.946 345.016C370.076 335.257 368.016 324.446 362.896 315.737C364.396 307.476 364.416 298.707 364.816 290.356L364.947 287.46C365.271 279.734 365.398 272.001 365.335 264.276C365.206 247.167 364.146 230.087 361.996 213.106C358.98 189.239 354.786 164.745 346.5 141.931C348.723 141.443 350.829 139.454 351.027 137.046C351.62 129.833 350.615 122.775 348.489 116.024C353.587 113.692 357.985 110.117 359.005 104.147C359.516 101.127 359.045 98.1474 357.816 95.6164C366.286 87.6274 373.476 76.3064 372.916 65.1474C372.536 57.7574 367.156 52.2074 359.916 51.2474C358.556 51.0674 357.186 51.0374 355.826 51.1274C356.496 49.5564 357.085 47.9464 357.436 46.2664C358.806 39.6864 356.375 32.5374 350.175 29.2974C345.304 26.7516 339.903 27.5423 334.904 29.1461L334.175 29.3864C334.755 28.3464 335.326 27.3064 335.875 26.2374C338.625 20.8564 335.206 14.8974 329.175 14.5674C312.556 13.6574 295.896 12.4364 279.255 11.6764C278.686 9.54737 277.156 7.77637 274.456 7.28737ZM41.0667 261.738C34.9557 260.667 28.7457 264.707 28.8067 271.257C28.8167 272.207 30.2157 272.408 30.4657 271.477L30.5265 271.288C31.2093 269.445 34.0773 268.822 35.6257 269.267C36.4283 269.496 37.0957 269.979 37.7172 270.509L38.1257 270.867C40.0167 272.527 41.2267 274.727 42.6067 276.797L42.9212 277.273C45.9584 281.892 48.9263 286.864 53.5567 289.967C60.3067 294.467 67.5357 285.828 64.1157 279.408C61.7823 275.057 57.2886 271.745 53.3745 268.672L51.8074 267.432C48.5931 264.901 45.17 262.452 41.0667 261.738Z" transform="translate(50.00023 54.99953)" fill="#000000" fill-rule="evenodd" stroke="none"></path></g></g><g transform="translate(159 186)"><g><path d="M140.63 0.473197L139.193 0.179116C137.503 -0.15929 135.804 -0.0161244 134.311 0.591153C132.847 1.18684 131.572 2.2242 130.68 3.72083C129.495 5.71373 129.337 7.38618 129.887 9.59525C130.311 11.3022 131.242 12.5864 132.46 13.5139C133.744 14.4911 135.37 15.0612 137.06 15.2595C144.854 16.175 152.53 17.8896 159.992 20.3235C163.488 21.4643 166.788 23.0096 170.058 24.6132L172.877 26.002C175.477 27.2735 178.163 28.499 181.557 29.3885C181.824 29.4584 182.087 29.5243 182.349 29.5865C183.29 29.2909 183.45 28.9329 183.649 28.6733L183.73 28.5721C183.972 28.2679 184.271 27.8025 183.988 25.6306C176.583 10.2711 156.267 3.74181 140.63 0.473197ZM43.5878 4.83023L45.4652 4.50163C51.273 3.49719 58.4944 2.53203 62.6028 7.20123C64.7819 9.67723 65.5318 14.2792 62.6028 16.6492C58.7671 19.7539 54.6298 19.6513 50.2182 19.5419C48.7043 19.5044 47.1582 19.466 45.5808 19.5562C40.4928 19.8482 35.6028 20.6902 30.7018 22.0912C19.9498 25.1642 11.1888 30.7742 2.00585 36.9342C0.800849 37.7422 -0.429151 36.2012 0.145849 35.0742C5.44685 24.6912 15.7198 16.1622 26.0098 10.9632C31.5019 8.18823 37.5118 5.88623 43.5878 4.83023ZM29.9632 50.1461C30.7976 39.7899 46.5702 37.4381 48.1392 47.6861C49.5442 56.8661 47.8902 65.2991 43.7552 73.5641C39.8042 81.4601 29.8737 77.7763 29.1227 70.5863C28.3809 63.4843 28.9069 59.2482 29.4428 54.933C29.6341 53.3921 29.8267 51.8412 29.9632 50.1461ZM159.205 41.8262C155.401 40.7152 152.226 42.6812 150.027 45.5612C149.773 45.8932 149.566 46.2222 149.38 46.5482C142.515 52.8562 145.101 65.6452 150.501 72.0492C153.814 75.9762 161.145 74.8452 163.413 70.3852C167.587 62.1722 171.09 45.2992 159.205 41.8262ZM128.748 119.039C136.872 107.66 125.366 96.9569 117.814 92.3669C115.836 90.9469 117.406 86.2431 121.634 86.9701C160.031 93.5671 140.136 159.708 91.112 123.413C85.2754 118.704 92.3434 108.334 98.6342 112.366C98.9532 112.611 99.2876 112.869 99.6364 113.139C106.704 118.603 119.636 128.601 128.748 119.039ZM93.5865 188.926C86.8642 186.184 80.8663 181.61 76.4812 175.766C74.9566 173.735 74.5614 171.589 74.8812 169.627C75.2408 167.421 76.546 165.422 78.326 164.08C80.1115 162.735 82.345 162.072 84.5043 162.41C86.3806 162.704 88.2484 163.731 89.7265 165.862L90.0354 166.288C92.6424 169.815 96.0396 172.708 99.9104 174.574C103.641 176.372 107.814 177.211 112.132 176.723C120.356 175.794 126.024 171.346 132.049 165.306C132.796 164.544 133.543 163.757 134.294 162.958C134.768 162.234 135.426 161.768 136.157 161.524C136.968 161.253 137.886 161.268 138.726 161.562C139.537 161.845 140.262 162.381 140.747 163.094C141.209 163.772 141.471 164.61 141.386 165.574C140.835 171.833 137.562 177.419 132.914 181.805C127.752 186.677 120.909 190.047 114.466 191.229C107.368 192.531 100.136 191.598 93.5865 188.926Z" transform="translate(53.00005 52.00027)" fill="#000000" fill-rule="evenodd" stroke="none"></path></g></g><g transform="translate(123 338)"></g><g transform="translate(47 241)"><g><path d="M355.09 63.4319C352.262 71.1279 347.958 79.1399 342.695 85.6169C321.401 103.649 300.71 93.6649 290.204 69.2259C286.212 51.9549 296.811 33.3509 308.042 20.6459C324.262 4.38889 350.733 12.9209 358.191 32.2469C358.644 34.7509 358.918 37.2489 359.049 39.7389C358.894 47.8299 357.919 54.7449 355.09 62.4319M150.41 47.9109C178.462 14.5439 230.942 12.7599 229.603 64.1149C223.577 129.119 122.106 113.164 150.41 47.9109ZM363.913 20.0759C362.93 18.4109 361.839 16.7999 360.648 15.2589C360.208 14.9969 359.955 12.6729 358.337 12.5009C336.71 -11.3581 298.717 2.17889 284.989 25.9529C282.482 28.9589 280.437 32.4779 278.929 36.1959C265.403 33.7149 249.634 34.1969 237.054 39.3059C224.58 6.73389 186.815 3.82589 161.928 17.7429C146.449 25.3559 136.412 41.2989 121.358 50.0569C85.9688 52.6039 47.9878 44.6749 13.2378 53.5519C-14.1682 59.2499 8.74178 73.1269 13.3378 63.8659C46.1008 54.1859 84.9158 62.3659 118.933 60.1849C122.47 66.1679 129.253 71.0639 136.013 70.8549C143.314 135.576 237.698 124.844 240.954 67.3109C244.647 61.4719 249.24 55.8839 255.814 52.2459C258.331 51.7249 260.762 51.0479 262.984 49.9999C266.782 49.4639 272.634 51.0739 276.128 54.2359C288.097 126.052 357.052 117.688 369.375 54.7739C369.62 54.5239 370.305 53.5859 370.831 52.0809C375.049 46.5039 385.375 44.4309 383.725 35.0159C382.256 25.5989 370.364 25.7109 363.913 20.0759Z" transform="translate(11.99972 10.99992)" fill="#000000" stroke="none"></path></g></g></g></g></svg>